PathFileType	4	(X/Y/Z)	FAILT01_SDP01_markers.trc
DataRate	CameraRate	NumFrames	NumMarkers	Units	OrigDataRate	OrigDataStartFrame	OrigNumFrames
100	100	4	59	mm	100	56	446
Frame#	Time	RSH			LSH			C7			LELB			LWR			RELB			RWR			RASI			LASI			SACR			P1			P2			P3			LTHLP			LTHLD			LTHAP			LTHAD			LLEPI			LPAT			LTIAP			LTIAD			LTILAT			LLMAL			LHEEL			LMFS			LMFL			LP5MT			LP1MT			LTOE			RTHLP			RTHLD			RTHAP			RTHAD			RLEPI			RPAT			RTIAP			RTIAD			RTILAT			RLMAL			RHEEL			RMFS			RMFL			RP5MT			RP1MT			RTOE			P4			*46			*47			*48			*49			*50			*51			*52			*53			*54			*55			*56			*57			*58			
		X1	Y1	Z1	X2	Y2	Z2	X3	Y3	Z3	X4	Y4	Z4	X5	Y5	Z5	X6	Y6	Z6	X7	Y7	Z7	X8	Y8	Z8	X9	Y9	Z9	X10	Y10	Z10	X11	Y11	Z11	X12	Y12	Z12	X13	Y13	Z13	X14	Y14	Z14	X15	Y15	Z15	X16	Y16	Z16	X17	Y17	Z17	X18	Y18	Z18	X19	Y19	Z19	X20	Y20	Z20	X21	Y21	Z21	X22	Y22	Z22	X23	Y23	Z23	X24	Y24	Z24	X25	Y25	Z25	X26	Y26	Z26	X27	Y27	Z27	X28	Y28	Z28	X29	Y29	Z29	X30	Y30	Z30	X31	Y31	Z31	X32	Y32	Z32	X33	Y33	Z33	X34	Y34	Z34	X35	Y35	Z35	X36	Y36	Z36	X37	Y37	Z37	X38	Y38	Z38	X39	Y39	Z39	X40	Y40	Z40	X41	Y41	Z41	X42	Y42	Z42	X43	Y43	Z43	X44	Y44	Z44	X45	Y45	Z45	X46	Y46	Z46	X47	Y47	Z47	X48	Y48	Z48	X49	Y49	Z49	X50	Y50	Z50	X51	Y51	Z51	X52	Y52	Z52	X53	Y53	Z53	X54	Y54	Z54	X55	Y55	Z55	X56	Y56	Z56	X57	Y57	Z57	X58	Y58	Z58	X59	Y59	Z59
56	        0.5499999523	     -145.8481103182	     1590.8120870590	       73.5451579094	      126.7155706882	     1610.5945110321	      113.2088005543	       -6.8413317204	     1647.7630138397	       24.1017937660	      105.3986251354	     1347.7188348770	      257.1448907256	      -80.9438526630	     1474.9600887299	      213.0158543587	     -163.8406515121	     1388.8124227524	      263.8827115297	       53.7176430225	     1483.5008382797	      247.3811805248	     -120.4889267683	     1150.1315832138	      174.2226481438	      100.6307303905	     1153.0531644821	      185.1227730513	       -6.2667429447	     1227.0115613937	       -1.2443363667	       45.6594526768	     1227.2250652313	        1.7113387585	      -58.1929832697	     1226.7981767654	       -4.2000412941	       -1.0339617729	     1164.1080379486	      -21.6245949268	      173.4000742435	      924.3031740189	      110.5819046497	      155.0413668156	      825.1299858093	       94.1911339760	       89.2335176468	      918.4042215347	      203.7984430790	       78.9336562157	      813.9759302139	      183.2412183285	      138.6523842812	      694.5143342018	       80.1707804203	       69.1847205162	      696.0504651070	      153.5779237747	       66.9699907303	      524.1846442223	      108.8833510876	       57.1840405464	      413.4287536144	       97.6009666920	      129.5723915100	      467.2301411629	       53.4320175648	       93.2416915894	      286.4787280560	       55.6046366692	       45.0805127621	      247.9964196682	       -6.3263773918	       46.3656485081	      281.3905477524	      140.5807882547	       93.6948060989	      255.3347647190	      113.5037541389	      122.0160424709	      217.8647518158	      160.9615981579	       -0.9969770908	      234.6264272928	      185.6190860271	       32.9181849957	      248.6312538385	      232.0867627859	     -193.4412941337	      923.2546091080	       75.2183496952	     -177.8932660818	      820.7333087921	       67.8362846375	      -97.3913967609	      913.4616255760	      187.4507665634	      -95.9072709084	      811.3599419594	      162.7235710621	     -167.2415733337	      701.0682225227	       55.7363033295	      -94.8917120695	      700.2654671669	      130.6270360947	      -99.4815081358	      518.5196399689	       90.7756686211	      -91.0439342260	      417.3469245434	       86.2238705158	     -161.3109707832	      463.6401832104	       40.5582189560	     -129.9086958170	      292.1428382397	       50.7314801216	      -84.5479369164	      251.9053816795	       -3.3792555332	      -93.0855125189	      280.1193594933	      146.4941799641	     -137.7253681421	      252.4860799313	      113.4350895882	     -163.3113771677	      227.7449369431	      165.8627986908	      -40.6842231750	      233.7213009596	      193.5470849276	      -84.2427611351	      251.8776655197	      237.1162772179	       -4.9548149109	     1244.4550991058	        5.6555271149	     -112.0783537626	      307.1962594986	       95.5720543861	     -300.7080554962	        0.0000000000	      382.1262419224	     -300.7080554962	        0.0000000000	      382.1262419224	     -300.7080554962	        0.0000000000	      382.1262419224	     -300.7080554962	        0.0000000000	      382.1262419224	     -300.7080554962	        0.0000000000	      382.1262419224	     -300.7080554962	        0.0000000000	      382.1262419224	     -300.7080554962	        0.0000000000	      382.1262419224	     -300.7080554962	        0.0000000000	      382.1262419224	     -300.7080554962	        0.0000000000	      382.1262419224	     -300.7080554962	        0.0000000000	      382.1262419224	     -300.7080554962	        0.0000000000	      382.1262419224	     -300.7080554962	        0.0000000000	      382.1262419224
57	        0.5600000024	     -145.8205878735	     1591.0025835037	       74.4958519936	      126.8525123596	     1610.6778383255	      113.4499013424	       -6.9525241852	     1648.0338573456	       24.7867107391	      105.8481335640	     1347.5376367569	      256.9543421268	      -80.5609226227	     1474.9301671982	      213.6130332947	     -163.3110940456	     1388.6970281601	      264.5477429032	       54.2109608650	     1483.3999872208	      247.5758790970	     -119.8753565550	     1149.9580144882	      174.5337247849	      101.2986898422	     1153.2243490219	      184.5632195473	       -6.3977837563	     1227.2514104843	       -1.2805163860	       45.5401241779	     1227.4721860886	        1.4394223690	      -58.3356469870	     1227.0306348801	       -4.0004551411	       -1.2062191963	     1164.3851995468	      -21.8362808228	      173.7942993641	      924.1521954536	      111.1805438995	      155.1769375801	      824.8270153999	       95.8127677441	       89.7081196308	      919.0880060196	      204.4276297092	       79.0761113167	      814.8427605629	      185.0611567497	      138.2789909840	      694.2920088768	       83.4753215313	       68.7306523323	      696.3849067688	      156.9610238075	       66.3949251175	      523.8327980042	      111.0606789589	       56.6817224026	      413.1324887276	       98.7579226494	      129.4494271278	      467.2923684120	       55.7960569859	       93.2577550411	      286.5022122860	       55.7917356491	       45.0662970543	      248.0193376541	       -6.3335299492	       46.3434755802	      281.4960181713	      140.6126618385	       93.5987234116	      255.4891407490	      113.5270297527	      121.9920217991	      217.9093956947	      160.9844863415	       -1.0256171227	      234.6463501453	      185.4726821184	       32.9111814499	      248.7871944904	      231.9472581148	     -193.1247413158	      923.2396483421	       75.4870772362	     -177.7145266533	      820.7349777222	       67.9689049721	      -96.8344509602	      913.2974147797	      187.4819695950	      -95.5495685339	      811.1883401871	      162.7275943756	     -167.1906709671	      701.0478973389	       55.9444427490	      -94.6552306414	      700.1943588257	      130.6673288345	      -99.3894934654	      518.4394717216	       90.7701551914	      -91.0208970308	      417.2824919224	       86.1123800278	     -161.3610088825	      463.6261761189	       40.7266914845	     -130.0518363714	      292.1262979507	       50.5575537682	      -84.6070200205	      251.7497539520	       -3.4872889519	      -93.2976603508	      280.2757620811	      146.3207453489	     -137.8788352013	      252.4824440479	      113.3351922035	     -163.3669435978	      227.7170568705	      165.8062636852	      -40.8146679401	      234.0725362301	      193.4782266617	      -84.4583064318	      252.1944642067	      236.9786202908	       -5.0837695599	     1244.6594238281	        5.6591629982	     -112.1951192617	      307.2024583817	       95.6237316132	     -300.7080554962	        0.0000000000	      382.1262419224	     -300.7080554962	        0.0000000000	      382.1262419224	     -300.7080554962	        0.0000000000	      382.1262419224	     -300.7080554962	        0.0000000000	      382.1262419224	     -300.7080554962	        0.0000000000	      382.1262419224	     -300.7080554962	        0.0000000000	      382.1262419224	     -300.7080554962	        0.0000000000	      382.1262419224	     -300.7080554962	        0.0000000000	      382.1262419224	     -300.7080554962	        0.0000000000	      382.1262419224	     -300.7080554962	        0.0000000000	      382.1262419224	     -300.7080554962	        0.0000000000	      382.1262419224	     -300.7080554962	        0.0000000000	      382.1262419224
58	        0.5699999928	     -145.7894444466	     1591.1570787430	       75.4996836185	      126.9896924496	     1610.7652187347	      113.6513352394	       -7.0648491383	     1648.2423543930	       25.5459249020	      106.3968837261	     1347.3712205887	      256.7522376776	      -80.1152884960	     1474.8809337616	      214.2545133829	     -162.6965105534	     1388.5592222214	      265.2853056788	       54.7475218773	     1483.2646846771	      247.7797120810	     -119.1873252392	     1149.7349739075	      174.8276799917	      102.0125448704	     1153.3316373825	      183.9790791273	       -6.5129697323	     1227.4565696716	       -1.3103485107	       45.4436540604	     1227.6960611343	        1.1442005634	      -58.4696382284	     1227.2170782089	       -3.7649571896	       -1.3977885246	     1164.6254062653	      -22.0385491848	      174.1563379765	      923.8362312317	      111.9397282600	      155.2315652370	      824.4587182999	       97.6476967335	       90.0138318539	      919.7475314140	      205.1509171724	       79.2161226273	      815.6080245972	      187.1036589146	      137.9556953907	      694.0019130707	       87.0359838009	       68.3042705059	      696.5460181236	      160.4173183441	       65.7812356949	      523.4561562538	      113.2873296738	       56.2782287598	      412.7996861935	       99.7784733772	      129.3185353279	      467.2891795635	       58.2812726498	       93.2613611221	      286.5180671215	       56.0462772846	       45.0651049614	      248.0824738741	       -6.2964558601	       46.2601184845	      281.5919518471	      140.6795084476	       93.5272574425	      255.6602954865	      113.6147975922	      121.9677031040	      217.9728448391	      161.0008031130	       -1.0203719139	      234.6600741148	      185.4802668095	       32.9072177410	      248.9173710346	      231.8983972073	     -192.8090304136	      923.2325553894	       75.7505595684	     -177.5160655379	      820.7314610481	       68.1072771549	      -96.3746905327	      913.0340814590	      187.5421255827	      -95.2443182468	      810.9872937202	      162.7265363932	     -167.0919805765	      701.0449767113	       56.1301410198	      -94.4350659847	      700.0885605812	      130.7199001312	      -99.3004441261	      518.3876156807	       90.7733142376	      -90.9872204065	      417.2074496746	       86.0218703747	     -161.3853424788	      463.6095166206	       40.9396588802	     -130.1807165146	      292.0733690262	       50.4063963890	      -84.6451967955	      251.6023814678	       -3.6005079746	      -93.5088694096	      280.4117798805	      146.1689025164	     -138.0283385515	      252.4761557579	      113.2411062717	     -163.4386628866	      227.6931852102	      165.7534539700	      -40.9393608570	      234.4019562006	      193.4583485126	      -84.7143530846	      252.5344789028	      236.8320077658	       -5.1889121532	     1244.8261976242	        5.6808292866	     -112.3151034117	      307.2112798691	       95.6697463989	     -300.7080554962	        0.0000000000	      382.1262419224	     -300.7080554962	        0.0000000000	      382.1262419224	     -300.7080554962	        0.0000000000	      382.1262419224	     -300.7080554962	        0.0000000000	      382.1262419224	     -300.7080554962	        0.0000000000	      382.1262419224	     -300.7080554962	        0.0000000000	      382.1262419224	     -300.7080554962	        0.0000000000	      382.1262419224	     -300.7080554962	        0.0000000000	      382.1262419224	     -300.7080554962	        0.0000000000	      382.1262419224	     -300.7080554962	        0.0000000000	      382.1262419224	     -300.7080554962	        0.0000000000	      382.1262419224	     -300.7080554962	        0.0000000000	      382.1262419224
59	        0.5799999833	     -145.7031220198	     1591.2894010544	       76.6182541847	      127.1675825119	     1610.8094453812	      113.8680875301	       -7.1890950203	     1648.4230756760	       26.3283550739	      107.0223450661	     1347.1702337265	      256.5199285746	      -79.5824825764	     1474.7818708420	      214.9674594402	     -162.0164513588	     1388.3836269379	      266.1030814052	       55.3740561008	     1483.1097126007	      248.0268925428	     -119.0494894981	     1149.3192911148	      175.2564758062	      102.8589904308	     1153.3451080322	      183.3911389112	       -6.6053569317	     1227.6116609573	       -1.3374090195	       45.3718006611	     1227.8680801392	        0.8471906185	      -58.5824847221	     1227.3551225662	       -3.5219788551	       -1.5791654587	     1164.8194789886	      -22.2322046757	      174.5371222496	      923.5013127327	      112.8839850426	      155.2286446095	      823.9967823029	       99.7138023376	       90.2909338474	      920.4066991806	      205.9563249350	       79.2948007584	      816.3195252419	      189.3042474985	      137.6731991768	      693.6412453651	       90.6832814217	       67.7455067635	      696.5001821518	      164.0147566795	       65.1720464230	      523.0804681778	      115.4693663120	       55.7993352413	      412.4794304371	      101.0040640831	      129.2461156845	      467.2449827194	       60.8158409595	       93.2768881321	      286.5528762341	       56.3287436962	       45.0482070446	      248.1602579355	       -6.2261521816	       46.1781322956	      281.6795706749	      140.7856792212	       93.4746861458	      255.8293640614	      113.7405037880	      121.9313740730	      218.0098742247	      161.0096246004	       -1.0074973106	      234.6737980843	      185.6305003166	       32.8725576401	      248.9980310202	      231.8839579821	     -192.4510747194	      923.2631921768	       75.9476125240	     -177.2678494453	      820.7578659058	       68.2049989700	      -95.8783626556	      912.7842187881	      187.6623481512	      -94.9814915657	      810.7836842537	      162.7258956432	     -166.9642329216	      701.0321021080	       56.3009679317	      -94.2765474319	      700.0017762184	      130.8194994926	      -99.2111265659	      518.3237791061	       90.7796025276	      -90.9206271172	      417.1564579010	       85.9324634075	     -161.3648831844	      463.6001586914	       41.0848557949	     -130.2956193686	      292.0485436916	       50.2420365810	      -84.7180485725	      251.4434456825	       -3.7109851837	      -93.6850905418	      280.5326581001	      146.0135430098	     -138.1814926863	      252.4826824665	      113.1292879581	     -163.4924560785	      227.6737987995	      165.6987518072	      -41.0725474358	      234.6717715263	      193.3815181255	      -84.9405080080	      252.8720200062	      236.6795688868	       -5.2583813667	     1244.9505329132	        5.7379305363	     -112.4206930399	      307.2624206543	       95.6786572933	     -300.7080554962	        0.0000000000	      382.1262419224	     -300.7080554962	        0.0000000000	      382.1262419224	     -300.7080554962	        0.0000000000	      382.1262419224	     -300.7080554962	        0.0000000000	      382.1262419224	     -300.7080554962	        0.0000000000	      382.1262419224	     -300.7080554962	        0.0000000000	      382.1262419224	     -300.7080554962	        0.0000000000	      382.1262419224	     -300.7080554962	        0.0000000000	      382.1262419224	     -300.7080554962	        0.0000000000	      382.1262419224	     -300.7080554962	        0.0000000000	      382.1262419224	     -300.7080554962	        0.0000000000	      382.1262419224	     -300.7080554962	        0.0000000000	      382.1262419224
